<?xml version="1.0" encoding="UTF-8" standalone="no"?>
<!-- Created with Inkscape (http://www.inkscape.org/) -->

<svg
   width="20in"
   height="7in"
   viewBox="0 0 508 177.8"
   version="1.1"
   id="svg5"
   inkscape:version="1.2.1 (9c6d41e4, 2022-07-14)"
   sodipodi:docname="ToolHolder_single_1-5x2-5_8units.svg"
   xmlns:inkscape="http://www.inkscape.org/namespaces/inkscape"
   xmlns:sodipodi="http://sodipodi.sourceforge.net/DTD/sodipodi-0.dtd"
   xmlns="http://www.w3.org/2000/svg"
   xmlns:svg="http://www.w3.org/2000/svg">
  <sodipodi:namedview
     id="namedview7"
     pagecolor="#ffffff"
     bordercolor="#000000"
     borderopacity="0.25"
     inkscape:showpageshadow="2"
     inkscape:pageopacity="0.0"
     inkscape:pagecheckerboard="0"
     inkscape:deskcolor="#d1d1d1"
     inkscape:document-units="in"
     showgrid="true"
     shape-rendering="crispEdges"
     inkscape:zoom="0.19897838"
     inkscape:cx="1196.1099"
     inkscape:cy="758.87644"
     inkscape:window-width="1237"
     inkscape:window-height="836"
     inkscape:window-x="105"
     inkscape:window-y="0"
     inkscape:window-maximized="0"
     inkscape:current-layer="layer1"
     showguides="true">
    <inkscape:grid
       type="xygrid"
       id="grid118"
       units="in"
       spacingx="6.35"
       spacingy="6.35"
       empspacing="4" />
    <sodipodi:guide
       position="-25.4,107.95"
       orientation="1,0"
       id="guide1041"
       inkscape:locked="false" />
  </sodipodi:namedview>
  <defs
     id="defs2">
    <inkscape:path-effect
       effect="fillet_chamfer"
       id="path-effect5021"
       is_visible="true"
       lpeversion="1"
       nodesatellites_param="F,0,0,1,0,0,0,1 @ F,0,0,1,0,0,0,1 @ F,0,1,1,0,7.8125,0,1 @ F,0,1,1,0,7.8125,0,1 @ F,0,1,1,0,7.8125,0,1 @ F,0,1,1,0,7.8125,0,1 @ F,0,1,1,0,7.8125,0,1 @ F,0,1,1,0,7.8125,0,1 @ F,0,1,1,0,7.8125,0,1 @ F,0,1,1,0,7.8125,0,1 @ F,0,1,1,0,7.8125,0,1 @ F,0,1,1,0,7.8125,0,1 @ F,0,1,1,0,7.8125,0,1 @ F,0,1,1,0,7.8125,0,1 @ F,0,1,1,0,7.8125,0,1 @ F,0,1,1,0,7.8125,0,1 @ F,0,1,1,0,7.8125,0,1 @ F,0,1,1,0,7.8125,0,1 @ F,0,1,1,0,7.8125,0,1 @ F,0,1,1,0,7.8125,0,1 @ F,0,1,1,0,7.8125,0,1 @ F,0,1,1,0,7.8125,0,1 @ F,0,1,1,0,7.8125,0,1 @ F,0,1,1,0,7.8125,0,1 @ F,0,1,1,0,7.8125,0,1 @ F,0,1,1,0,7.8125,0,1 @ F,0,1,1,0,7.8125,0,1 @ F,0,1,1,0,7.8125,0,1 @ F,0,1,1,0,7.8125,0,1 @ F,0,1,1,0,7.8125,0,1 @ F,0,1,1,0,7.8125,0,1 @ F,0,1,1,0,7.8125,0,1 @ F,0,1,1,0,7.8125,0,1 @ F,0,1,1,0,7.8125,0,1 @ F,0,1,1,0,7.8125,0,1 @ F,0,1,1,0,7.8125,0,1 @ F,0,1,1,0,7.8125,0,1 @ F,0,1,1,0,7.8125,0,1 @ F,0,1,1,0,7.8125,0,1 @ F,0,1,1,0,7.8125,0,1 @ F,0,1,1,0,7.8125,0,1 @ F,0,0,1,0,0,0,1 @ F,0,0,1,0,0,0,1"
       unit="px"
       method="auto"
       mode="F"
       radius="750"
       chamfer_steps="1"
       flexible="false"
       use_knot_distance="true"
       apply_no_radius="true"
       apply_with_radius="true"
       only_selected="true"
       hide_knots="false" />
    <inkscape:path-effect
       effect="fillet_chamfer"
       id="path-effect5003"
       is_visible="true"
       lpeversion="1"
       nodesatellites_param="F,0,1,1,0,0,0,1 @ F,0,0,1,0,0,0,1 @ F,0,0,1,0,0,0,1 @ F,0,1,1,0,7.8125,0,1 @ F,0,1,1,0,7.8125,0,1 @ F,0,1,1,0,7.8125,0,1 @ F,0,1,1,0,0,0,1 @ F,0,1,1,0,0,0,1 @ F,0,1,1,0,0,0,1 @ F,0,1,1,0,7.8125,0,1 @ F,0,1,1,0,7.8125,0,1 @ F,0,0,1,0,0,0,1 @ F,0,0,1,0,0,0,1 @ F,0,0,1,0,0,0,1 @ F,0,0,1,0,0,0,1 @ F,0,1,1,0,7.8125,0,1 @ F,0,1,1,0,7.8125,0,1 @ F,0,0,1,0,0,0,1 @ F,0,0,1,0,0,0,1 @ F,0,0,1,0,0,0,1 @ F,0,0,1,0,0,0,1 @ F,0,1,1,0,7.8125,0,1 @ F,0,1,1,0,7.8125,0,1 @ F,0,0,1,0,0,0,1 @ F,0,0,1,0,0,0,1 @ F,0,0,1,0,0,0,1 @ F,0,0,1,0,0,0,1 @ F,0,1,1,0,7.8125,0,1 @ F,0,1,1,0,7.8125,0,1 @ F,0,1,1,0,7.8125,0,1 @ F,0,0,1,0,0,0,1 @ F,0,0,1,0,0,0,1 @ F,0,0,1,0,0,0,1 @ F,0,0,1,0,0,0,1 @ F,0,1,1,0,7.8125,0,1 @ F,0,1,1,0,7.8125,0,1 @ F,0,0,1,0,0,0,1 @ F,0,0,1,0,0,0,1 @ F,0,0,1,0,0,0,1 @ F,0,0,1,0,0,0,1 @ F,0,1,1,0,7.8125,0,1 @ F,0,1,1,0,7.8125,0,1 @ F,0,0,1,0,0,0,1 @ F,0,0,1,0,0,0,1 @ F,0,0,1,0,0,0,1 @ F,0,0,1,0,0,0,1 @ F,0,1,1,0,7.8125,0,1 @ F,0,1,1,0,7.8125,0,1 @ F,0,0,1,0,0,0,1 @ F,0,0,1,0,0,0,1 @ F,0,1,1,0,0,0,1"
       unit="px"
       method="auto"
       mode="F"
       radius="750"
       chamfer_steps="1"
       flexible="false"
       use_knot_distance="true"
       apply_no_radius="true"
       apply_with_radius="true"
       only_selected="true"
       hide_knots="false" />
    <inkscape:path-effect
       effect="fillet_chamfer"
       id="path-effect4961"
       is_visible="true"
       lpeversion="1"
       nodesatellites_param="F,1,0,1,0,0,0,1 @ F,1,0,1,0,0.31175218,0,1 @ F,1,0,1,0,0.076517949,0,1 @ F,1,0,1,0,0.41010499,0,1 @ F,1,0,1,0,0.41010499,0,1 @ F,1,0,1,0,0.076517949,0,1 @ F,1,0,1,0,0.3118222,0,1 @ F,1,0,1,0,31.827996,0,1 @ F,1,0,1,0,0.31175223,0,1 @ F,1,0,1,0,0.076517949,0,1 @ F,1,0,1,0,0.20505249,0,1 @ F,1,0,1,0,0.076517949,0,1 @ F,1,0,1,0,0.30430295,0,1 @ F,1,0,1,0,1079.0746,0,1 @ F,1,0,1,0,0.31985173,0,1 @ F,1,0,1,0,0.076517951,0,1 @ F,1,0,1,0,0.20505249,0,1 @ F,1,0,1,0,0.076517951,0,1 @ F,1,0,1,0,0.31182214,0,1 @ F,1,0,1,0,31.827996,0,1 @ F,1,0,1,0,0.31175217,0,1 @ F,1,0,1,0,0.076517951,0,1 @ F,1,0,1,0,0.20505249,0,1 @ F,1,0,1,0,0.076517951,0,1 @ F,1,0,1,0,0.30430295,0,1 @ F,1,0,1,0,12.473656,0,1 @ F,1,0,1,0,0.31323133,0,1 @ F,1,0,1,0,0.07651795,0,1 @ F,1,0,1,0,0.41010499,0,1 @ F,1,0,1,0,0.41010499,0,1 @ F,1,0,1,0,0.07651795,0,1 @ F,1,0,1,0,0.31182227,0,1 @ F,1,0,1,0,31.827996,0,1 @ F,1,0,1,0,0.31175217,0,1 @ F,1,0,1,0,0.07651795,0,1 @ F,1,0,1,0,0.20505249,0,1 @ F,1,0,1,0,0.07651795,0,1 @ F,1,0,1,0,0.30430295,0,1 @ F,1,0,1,0,1079.0746,0,1 @ F,1,0,1,0,0.31985173,0,1 @ F,1,0,1,0,0.076517952,0,1 @ F,1,0,1,0,0.20505249,0,1 @ F,1,0,1,0,0.076517952,0,1 @ F,1,0,1,0,0.31182214,0,1 @ F,1,0,1,0,31.827996,0,1 @ F,1,0,1,0,0.31175229,0,1 @ F,1,0,1,0,0.076517952,0,1 @ F,1,0,1,0,0.20505249,0,1 @ F,1,0,1,0,0.076517952,0,1 @ F,1,0,1,0,0.30430295,0,1 @ F,1,0,1,0,0.043940585,0,1 @ F,1,0,1,0,0,0,1 @ F,1,0,1,0,0,0,1 @ F,1,0,1,0,0,0,1 @ F,1,0,1,0,0,0,1 @ F,1,0,1,0,0,0,1 @ F,1,0,1,0,0,0,1 @ F,1,0,1,0,0,0,1 @ F,1,0,1,0,0,0,1 @ F,1,0,1,0,0,0,1 @ F,1,0,1,0,0,0,1 @ F,1,0,1,0,0,0,1"
       unit="px"
       method="auto"
       mode="F"
       radius="0"
       chamfer_steps="1"
       flexible="true"
       use_knot_distance="true"
       apply_no_radius="true"
       apply_with_radius="true"
       only_selected="true"
       hide_knots="false" />
    <inkscape:path-effect
       effect="fillet_chamfer"
       id="path-effect4890"
       is_visible="true"
       lpeversion="1"
       nodesatellites_param="F,0,0,1,0,0,0,1 @ F,0,0,1,0,0,0,1 @ F,0,0,1,0,0,0,1 @ F,0,0,1,0,0,0,1 @ F,0,0,1,0,0,0,1 @ F,0,0,1,0,0,0,1 @ F,0,0,1,0,0,0,1 @ F,0,0,1,0,0,0,1 @ F,0,0,1,0,0,0,1 @ F,0,0,1,0,0,0,1 @ F,0,0,1,0,0,0,1 @ F,0,0,1,0,0,0,1 @ F,0,0,1,0,0,0,1 @ F,0,0,1,0,0,0,1 @ F,0,0,1,0,0,0,1 @ F,0,0,1,0,0,0,1 @ F,0,0,1,0,0,0,1 @ F,0,0,1,0,0,0,1 @ F,0,0,1,0,0,0,1 @ F,0,0,1,0,0,0,1 @ F,0,0,1,0,0,0,1 @ F,0,0,1,0,0,0,1 @ F,0,0,1,0,0,0,1 @ F,0,0,1,0,0,0,1 @ F,0,0,1,0,0,0,1 @ F,0,0,1,0,0,0,1 @ F,0,0,1,0,0,0,1 @ F,0,0,1,0,0,0,1 @ F,0,0,1,0,0,0,1 @ F,0,0,1,0,0,0,1 @ F,0,0,1,0,0,0,1"
       unit="px"
       method="auto"
       mode="F"
       radius="750"
       chamfer_steps="1"
       flexible="false"
       use_knot_distance="true"
       apply_no_radius="true"
       apply_with_radius="true"
       only_selected="true"
       hide_knots="false" />
    <rect
       x="24"
       y="24"
       width="336"
       height="120"
       id="rect677" />
    <inkscape:path-effect
       effect="fillet_chamfer"
       id="path-effect4890-0"
       is_visible="true"
       lpeversion="1"
       nodesatellites_param="F,0,0,1,0,0,0,1 @ F,0,0,1,0,0,0,1 @ F,0,0,1,0,0,0,1 @ F,0,0,1,0,0,0,1 @ F,0,0,1,0,0,0,1 @ F,0,0,1,0,0,0,1 @ F,0,0,1,0,0,0,1 @ F,0,0,1,0,0,0,1 @ F,0,0,1,0,0,0,1 @ F,0,0,1,0,0,0,1 @ F,0,0,1,0,0,0,1 @ F,0,0,1,0,0,0,1 @ F,0,0,1,0,0,0,1 @ F,0,0,1,0,0,0,1 @ F,0,0,1,0,0,0,1 @ F,0,0,1,0,0,0,1 @ F,0,0,1,0,0,0,1 @ F,0,0,1,0,0,0,1 @ F,0,0,1,0,0,0,1 @ F,0,0,1,0,0,0,1 @ F,0,0,1,0,0,0,1 @ F,0,0,1,0,0,0,1 @ F,0,0,1,0,0,0,1 @ F,0,0,1,0,0,0,1 @ F,0,0,1,0,0,0,1 @ F,0,0,1,0,0,0,1 @ F,0,0,1,0,0,0,1 @ F,0,0,1,0,0,0,1 @ F,0,0,1,0,0,0,1 @ F,0,0,1,0,0,0,1 @ F,0,0,1,0,0,0,1"
       unit="px"
       method="auto"
       mode="F"
       radius="750"
       chamfer_steps="1"
       flexible="false"
       use_knot_distance="true"
       apply_no_radius="true"
       apply_with_radius="true"
       only_selected="true"
       hide_knots="false" />
  </defs>
  <g
     inkscape:groupmode="layer"
     id="layer1"
     inkscape:label="main"
     style="display:inline">
    <path
       id="rect733"
       style="display:inline;opacity:0.6812;fill:#ffff00;stroke:#000000;stroke-width:0;stroke-dasharray:none"
       inkscape:label="main"
       d="M 0.34003092,0.0289388 V 177.77106 H 17.5875 A 7.8125,7.8125 135 0 0 25.4,169.95856 V 83.483333 a 7.8125,7.8125 135 0 1 7.8125,-7.8125 h 3.425 19.05 a 7.8125,7.8125 45 0 1 7.8125,7.8125 l 0,86.475227 c 0,4.31472 3.497759,7.82583 7.812373,7.85647 11.535433,0.0819 23.31225,0.22683 34.489967,0.25587 4.31439,0.0112 7.81191,-3.49896 7.81191,-7.81368 V 83.782023 a 7.8125,7.8125 135 0 1 7.8125,-7.8125 h 22.475 a 7.8125,7.8125 45 0 1 7.8125,7.8125 v 86.475227 c 0,4.31472 3.49775,7.82553 7.81247,7.83559 11.53406,0.0269 23.58157,0.0263 34.4738,0.0252 4.31471,-4.4e-4 7.81248,-3.49829 7.81248,-7.81301 V 83.829565 a 7.8125,7.8125 135 0 1 7.8125,-7.8125 h 22.475 a 7.8125,7.8125 45 0 1 7.8125,7.8125 v 86.475225 a 7.8291066,7.8291066 45.060831 0 0 7.81248,7.82909 l 9.42933,0.02 c 4.31471,0.009 11.29191,0.4642 15.6034,0.52315 3.06922,0.042 6.31505,-0.0354 9.45885,-0.11654 4.31275,-0.11135 7.8102,-3.64234 7.8102,-7.95706 V 84.128255 a 7.8125,7.8125 135 0 1 7.8125,-7.8125 h 22.475 a 7.8125,7.8125 45 0 1 7.8125,7.8125 v 86.475225 a 7.8291936,7.8291936 45.061149 0 0 7.81248,7.82918 l 10.04841,0.0214 c 4.31471,0.009 11.18311,-1.15998 15.47052,-1.2719 3.0144,-0.0787 6.33577,0.10598 9.48098,0.30011 4.30571,0.26576 7.80261,-3.13563 7.80261,-7.45035 V 83.556714 a 7.8125,7.8125 135 0 1 7.8125,-7.8125 h 3.425 19.05 a 7.8125,7.8125 45 0 1 7.8125,7.8125 v 86.475226 a 7.8291066,7.8291066 45.060831 0 0 7.81248,7.82909 l 9.42932,0.02 c 4.31471,0.009 11.29191,0.4642 15.6034,0.52315 3.06922,0.042 6.31505,-0.0354 9.45885,-0.11654 4.31275,-0.11135 7.8102,-3.64234 7.8102,-7.95706 V 83.855404 a 7.8125,7.8125 135 0 1 7.8125,-7.8125 h 22.475 a 7.8125,7.8125 45 0 1 7.8125,7.8125 l 0,86.475226 a 7.8291936,7.8291936 45.061149 0 0 7.81248,7.82918 l 10.04841,0.0214 c 4.31471,0.009 11.31025,0.0106 15.62498,0.009 2.93222,-0.001 5.86655,-9.2e-4 8.80038,-3.5e-4 4.31473,8.4e-4 7.8125,-3.49657 7.8125,-7.81129 V 83.902946 a 7.8125,7.8125 135 0 1 7.8125,-7.8125 h 22.475 a 7.8125,7.8125 45 0 1 7.8125,7.8125 v 86.475224 a 7.8291066,7.8291066 45.060831 0 0 7.81248,7.82909 l 9.42933,0.02 c 4.31471,0.009 11.29191,0.4642 15.6034,0.52315 3.06921,0.042 6.31505,-0.0354 9.45884,-0.11654 4.31275,-0.11135 7.8102,-3.64234 7.8102,-7.95706 V 84.201636 a 7.8125,7.8125 135 0 1 7.8125,-7.8125 h 22.475 a 7.8125,7.8125 45 0 1 7.8125,7.8125 v 86.475224 a 7.8291936,7.8291936 45.061149 0 0 7.81248,7.82918 l 17.86089,0.0381 -0.0455,-177.79689879 C 470.80736,0.42375224 236.25582,0.0289388 0.34003092,0.0289388 Z"
       sodipodi:nodetypes="cccccccccccccccccccccccccccccccccccccccccccc"
       inkscape:path-effect="#path-effect5021"
       inkscape:original-d="M 0.34003092,0.0289388 V 177.77106 H 25.4 V 75.670833 H 44.45 63.5 V 177.77106 c 16.657032,0.0645 34.239779,0.35091 50.11425,0.29866 V 75.969523 h 38.1 V 178.06975 c 16.53726,0.0603 35.0217,0.0474 50.09875,0.0478 V 76.017065 h 38.1 V 178.11729 l 25.05429,0.0532 c 7.00434,0.99989 17.37596,0.24546 25.05997,0.24546 V 76.315755 h 38.1 V 178.41598 l 25.67337,0.0548 c 5.57522,-2.51552 17.88113,-0.62632 24.94163,-0.62632 V 75.744214 h 19.05 19.05 V 177.84444 l 25.05428,0.0532 c 7.00434,0.99989 17.37596,0.24546 25.05997,0.24546 V 76.042904 h 38.1 V 178.14313 l 25.67337,0.0548 c 8.12631,-0.0139 16.28668,-0.007 24.42538,-0.007 V 76.090446 h 38.1 V 178.19067 l 25.05429,0.0532 c 7.00434,0.99989 17.37595,0.24546 25.05996,0.24546 V 76.389136 h 38.1 V 178.48936 l 25.67337,0.0548 -0.0455,-177.79689879 C 470.80736,0.42375224 236.25582,0.0289388 0.34003092,0.0289388 Z" />
  </g>
  <g
     inkscape:groupmode="layer"
     id="layer1-4"
     inkscape:label="main"
     style="display:none"
     transform="translate(103.67218,-0.08087276)" />
</svg>
