<?xml version="1.0" encoding="UTF-8" standalone="no"?>
<!-- Created with Inkscape (http://www.inkscape.org/) -->

<svg
   width="20in"
   height="7in"
   viewBox="0 0 508 177.8"
   version="1.1"
   id="svg5"
   inkscape:version="1.2.1 (9c6d41e, 2022-07-14)"
   sodipodi:docname="ToolHolder_34_5in_mount.svg"
   xmlns:inkscape="http://www.inkscape.org/namespaces/inkscape"
   xmlns:sodipodi="http://sodipodi.sourceforge.net/DTD/sodipodi-0.dtd"
   xmlns="http://www.w3.org/2000/svg"
   xmlns:svg="http://www.w3.org/2000/svg">
  <sodipodi:namedview
     id="namedview7"
     pagecolor="#ffffff"
     bordercolor="#000000"
     borderopacity="0.25"
     inkscape:showpageshadow="2"
     inkscape:pageopacity="0.0"
     inkscape:pagecheckerboard="0"
     inkscape:deskcolor="#d1d1d1"
     inkscape:document-units="in"
     showgrid="true"
     shape-rendering="crispEdges"
     inkscape:zoom="1"
     inkscape:cx="270.5"
     inkscape:cy="260.5"
     inkscape:window-width="1544"
     inkscape:window-height="935"
     inkscape:window-x="151"
     inkscape:window-y="78"
     inkscape:window-maximized="0"
     inkscape:current-layer="svg5"
     showguides="true">
    <inkscape:grid
       type="xygrid"
       id="grid118"
       units="in"
       spacingx="6.35"
       spacingy="6.35"
       empspacing="4" />
    <sodipodi:guide
       position="120.65,69.85"
       orientation="1,0"
       id="guide1041"
       inkscape:locked="false" />
  </sodipodi:namedview>
  <defs
     id="defs2">
    <rect
       x="48"
       y="600"
       width="360"
       height="48"
       id="rect277" />
    <rect
       x="24"
       y="600"
       width="384"
       height="48"
       id="rect271" />
  </defs>
  <g
     id="g502-8-7"
     inkscape:label="Mount1"
     transform="translate(6.6145836)">
    <g
       inkscape:label="Block"
       id="layer1-4-1">
      <path
         id="rect429-6-0"
         style="display:inline;fill:#ff0000;stroke-width:0.264583"
         d="M 12.435416,0 C -0.2645836,6.35 -6.6145836,31.75 -6.3500003,52.3875 L 19.05,33.3375 V 50.8 c -3.517886,0 -6.35,2.832116 -6.35,6.35 v 50.8 L 12.964583,127 1.2707232,125.24248 c -3.4910651,-0.4336 -6.6507208,2.02798 -7.0843221,5.51905 l -0.7823812,6.30142 C -5.3843543,158.37633 25.135416,152.4 37.835416,152.4 L 133.08542,0 H 32.279166 31.485416 Z"
         sodipodi:nodetypes="ccccscccccccccc" />
    </g>
  </g>
  <g
     inkscape:groupmode="layer"
     id="layer1"
     inkscape:label="Info">
    <text
       xml:space="preserve"
       transform="scale(0.26458333)"
       id="text269"
       style="white-space:pre;shape-inside:url(#rect271);display:inline;opacity:0.6812;fill:#ffff00;stroke:#000000" />
    <g
       aria-label="Sun 2024.10.20 v1
"
       transform="scale(0.26458333)"
       id="text275"
       style="white-space:pre;shape-inside:url(#rect277);opacity:0.6812;fill:#ffff00;stroke:#000000">
      <path
         d="m 55.511719,608.45773 q 0,0.50977 -0.240235,1.00781 -0.234375,0.49805 -0.662109,0.84375 -0.46875,0.375 -1.095703,0.58594 -0.621094,0.21094 -1.5,0.21094 -0.94336,0 -1.699219,-0.17578 -0.75,-0.17579 -1.529297,-0.52149 v -1.45312 h 0.08203 q 0.66211,0.55078 1.529297,0.84961 0.867188,0.29882 1.628907,0.29882 1.078125,0 1.675781,-0.40429 0.603515,-0.4043 0.603515,-1.07813 0,-0.58008 -0.287109,-0.85547 -0.28125,-0.27539 -0.861328,-0.42773 -0.439453,-0.11719 -0.955078,-0.19336 -0.509766,-0.0762 -1.083985,-0.19336 -1.160156,-0.24609 -1.722656,-0.83789 -0.55664,-0.59766 -0.55664,-1.55273 0,-1.09571 0.925781,-1.79297 0.925781,-0.70313 2.349609,-0.70313 0.919922,0 1.6875,0.17578 0.767578,0.17578 1.359375,0.4336 v 1.37109 h -0.08203 q -0.498047,-0.42187 -1.3125,-0.69727 -0.808594,-0.28125 -1.658203,-0.28125 -0.931641,0 -1.5,0.38672 -0.5625,0.38672 -0.5625,0.9961 0,0.54492 0.28125,0.85547 0.28125,0.31054 0.990234,0.47461 0.375,0.082 1.066406,0.19921 0.691407,0.11719 1.171875,0.24024 0.972657,0.25781 1.464844,0.7793 0.492188,0.52148 0.492188,1.45898 z"
         id="path563" />
      <path
         d="m 62.712891,610.94796 h -1.101563 v -0.72656 q -0.556641,0.43945 -1.066406,0.67383 -0.509766,0.23437 -1.125,0.23437 -1.03125,0 -1.605469,-0.62695 -0.574219,-0.63281 -0.574219,-1.85156 v -4.24805 h 1.101563 v 3.72656 q 0,0.49805 0.04687,0.85547 0.04687,0.35157 0.199219,0.60352 0.158203,0.25781 0.410156,0.375 0.251953,0.11719 0.732422,0.11719 0.427734,0 0.93164,-0.22266 0.509766,-0.22266 0.949219,-0.56836 v -4.88672 h 1.101563 z"
         id="path565" />
      <path
         d="m 70.353516,610.94796 h -1.101563 v -3.72656 q 0,-0.45117 -0.05273,-0.84375 -0.05273,-0.39844 -0.19336,-0.62109 -0.146484,-0.2461 -0.421875,-0.36328 -0.27539,-0.12305 -0.714843,-0.12305 -0.451172,0 -0.94336,0.22266 -0.492187,0.22265 -0.943359,0.56836 v 4.88671 h -1.101563 v -6.54492 h 1.101563 v 0.72656 q 0.515625,-0.42773 1.066406,-0.66796 0.550781,-0.24024 1.130859,-0.24024 1.060547,0 1.617188,0.63867 0.556641,0.63868 0.556641,1.83985 z"
         id="path567" />
      <path
         d="m 82.458984,610.94796 h -5.90625 v -1.22461 q 0.615235,-0.52734 1.230469,-1.05468 0.621094,-0.52735 1.154297,-1.04883 1.125,-1.08984 1.541016,-1.72852 0.416015,-0.64453 0.416015,-1.38867 0,-0.67969 -0.451172,-1.06055 -0.445312,-0.38671 -1.248047,-0.38671 -0.533203,0 -1.154296,0.1875 -0.621094,0.1875 -1.212891,0.57421 h -0.05859 v -1.23046 q 0.416016,-0.20508 1.107422,-0.375 0.697266,-0.16993 1.347656,-0.16993 1.341797,0 2.103516,0.65039 0.761719,0.64454 0.761719,1.75196 0,0.49804 -0.128907,0.93164 -0.123046,0.42773 -0.36914,0.81445 -0.228516,0.36328 -0.539063,0.71485 -0.304687,0.35156 -0.74414,0.77929 -0.626953,0.61524 -1.294922,1.19531 -0.667969,0.57422 -1.248047,1.06641 h 4.693359 z"
         id="path569" />
      <path
         d="m 90.076172,606.58273 q 0,2.34961 -0.738281,3.45117 -0.732422,1.0957 -2.279297,1.0957 -1.570313,0 -2.296875,-1.11328 -0.720703,-1.11328 -0.720703,-3.42187 0,-2.32617 0.732421,-3.4336 0.732422,-1.11328 2.285157,-1.11328 1.570312,0 2.291015,1.13086 0.726563,1.125 0.726563,3.4043 z m -1.541016,2.66016 q 0.205078,-0.47461 0.275391,-1.11329 0.07617,-0.64453 0.07617,-1.54687 0,-0.89063 -0.07617,-1.54688 -0.07031,-0.65625 -0.28125,-1.11328 -0.205078,-0.45117 -0.5625,-0.67968 -0.351563,-0.22852 -0.908203,-0.22852 -0.550782,0 -0.914063,0.22852 -0.357422,0.22851 -0.568359,0.6914 -0.199219,0.4336 -0.275391,1.13086 -0.07031,0.69727 -0.07031,1.5293 0,0.91406 0.06445,1.5293 0.06445,0.61523 0.27539,1.10156 0.19336,0.45703 0.544922,0.69726 0.357422,0.24024 0.94336,0.24024 0.550781,0 0.914062,-0.22852 0.363281,-0.22851 0.5625,-0.6914 z"
         id="path571" />
      <path
         d="m 97.716797,610.94796 h -5.90625 v -1.22461 q 0.615234,-0.52734 1.230469,-1.05468 0.621093,-0.52735 1.154296,-1.04883 1.125,-1.08984 1.541016,-1.72852 0.416016,-0.64453 0.416016,-1.38867 0,-0.67969 -0.451172,-1.06055 -0.445313,-0.38671 -1.248047,-0.38671 -0.533203,0 -1.154297,0.1875 -0.621094,0.1875 -1.212891,0.57421 h -0.05859 v -1.23046 q 0.416015,-0.20508 1.107422,-0.375 0.697265,-0.16993 1.347656,-0.16993 1.341797,0 2.103515,0.65039 0.761719,0.64454 0.761719,1.75196 0,0.49804 -0.128906,0.93164 -0.123047,0.42773 -0.369141,0.81445 -0.228515,0.36328 -0.539062,0.71485 -0.304688,0.35156 -0.744141,0.77929 -0.626953,0.61524 -1.294922,1.19531 -0.667968,0.57422 -1.248047,1.06641 h 4.69336 z"
         id="path573" />
      <path
         d="M 105.54492,608.49289 H 104.25 v 2.45507 h -1.125 v -2.45507 h -4.177734 v -1.34766 l 4.224614,-4.92188 H 104.25 v 5.33204 h 1.29492 z m -2.41992,-0.9375 v -3.9375 l -3.380859,3.9375 z"
         id="path575" />
      <path
         d="m 109.00781,610.94796 h -1.40039 v -1.66992 h 1.40039 z"
         id="path577" />
      <path
         d="m 116.8418,610.94796 h -4.72266 v -0.89062 h 1.81641 v -5.84766 h -1.81641 v -0.79687 q 0.36914,0 0.79102,-0.0586 0.42187,-0.0644 0.63867,-0.18164 0.26953,-0.14648 0.42187,-0.36914 0.15821,-0.22851 0.18164,-0.60937 h 0.90821 v 7.86328 h 1.78125 z"
         id="path579" />
      <path
         d="m 124.95703,606.58273 q 0,2.34961 -0.73828,3.45117 -0.73242,1.0957 -2.2793,1.0957 -1.57031,0 -2.29687,-1.11328 -0.7207,-1.11328 -0.7207,-3.42187 0,-2.32617 0.73242,-3.4336 0.73242,-1.11328 2.28515,-1.11328 1.57032,0 2.29102,1.13086 0.72656,1.125 0.72656,3.4043 z m -1.54101,2.66016 q 0.20507,-0.47461 0.27539,-1.11329 0.0762,-0.64453 0.0762,-1.54687 0,-0.89063 -0.0762,-1.54688 -0.0703,-0.65625 -0.28125,-1.11328 -0.20508,-0.45117 -0.5625,-0.67968 -0.35157,-0.22852 -0.90821,-0.22852 -0.55078,0 -0.91406,0.22852 -0.35742,0.22851 -0.56836,0.6914 -0.19922,0.4336 -0.27539,1.13086 -0.0703,0.69727 -0.0703,1.5293 0,0.91406 0.0645,1.5293 0.0644,0.61523 0.27539,1.10156 0.19336,0.45703 0.54492,0.69726 0.35743,0.24024 0.94336,0.24024 0.55078,0 0.91407,-0.22852 0.36328,-0.22851 0.5625,-0.6914 z"
         id="path581" />
      <path
         d="m 128.63086,610.94796 h -1.40039 v -1.66992 h 1.40039 z"
         id="path583" />
      <path
         d="m 136.96289,610.94796 h -5.90625 v -1.22461 q 0.61523,-0.52734 1.23047,-1.05468 0.62109,-0.52735 1.1543,-1.04883 1.125,-1.08984 1.54101,-1.72852 0.41602,-0.64453 0.41602,-1.38867 0,-0.67969 -0.45117,-1.06055 -0.44532,-0.38671 -1.24805,-0.38671 -0.5332,0 -1.1543,0.1875 -0.62109,0.1875 -1.21289,0.57421 h -0.0586 v -1.23046 q 0.41601,-0.20508 1.10742,-0.375 0.69726,-0.16993 1.34766,-0.16993 1.34179,0 2.10351,0.65039 0.76172,0.64454 0.76172,1.75196 0,0.49804 -0.12891,0.93164 -0.12304,0.42773 -0.36914,0.81445 -0.22851,0.36328 -0.53906,0.71485 -0.30469,0.35156 -0.74414,0.77929 -0.62695,0.61524 -1.29492,1.19531 -0.66797,0.57422 -1.24805,1.06641 h 4.69336 z"
         id="path585" />
      <path
         d="m 144.58008,606.58273 q 0,2.34961 -0.73828,3.45117 -0.73243,1.0957 -2.2793,1.0957 -1.57031,0 -2.29688,-1.11328 -0.7207,-1.11328 -0.7207,-3.42187 0,-2.32617 0.73242,-3.4336 0.73243,-1.11328 2.28516,-1.11328 1.57031,0 2.29102,1.13086 0.72656,1.125 0.72656,3.4043 z m -1.54102,2.66016 q 0.20508,-0.47461 0.27539,-1.11329 0.0762,-0.64453 0.0762,-1.54687 0,-0.89063 -0.0762,-1.54688 -0.0703,-0.65625 -0.28125,-1.11328 -0.20508,-0.45117 -0.5625,-0.67968 -0.35156,-0.22852 -0.9082,-0.22852 -0.55078,0 -0.91406,0.22852 -0.35742,0.22851 -0.56836,0.6914 -0.19922,0.4336 -0.27539,1.13086 -0.0703,0.69727 -0.0703,1.5293 0,0.91406 0.0645,1.5293 0.0644,0.61523 0.27539,1.10156 0.19336,0.45703 0.54492,0.69726 0.35742,0.24024 0.94336,0.24024 0.55078,0 0.91406,-0.22852 0.36328,-0.22851 0.5625,-0.6914 z"
         id="path587" />
      <path
         d="m 156.33398,604.40304 -2.64843,6.54492 h -1.10743 l -2.63085,-6.54492 h 1.19531 l 2.02734,5.20899 2.00977,-5.20899 z"
         id="path589" />
      <path
         d="m 163.04297,610.94796 h -4.72266 v -0.89062 h 1.81641 v -5.84766 h -1.81641 v -0.79687 q 0.36914,0 0.79102,-0.0586 0.42187,-0.0644 0.63867,-0.18164 0.26953,-0.14648 0.42187,-0.36914 0.15821,-0.22851 0.18165,-0.60937 h 0.9082 v 7.86328 h 1.78125 z"
         id="path591" />
    </g>
  </g>
</svg>
