<?xml version="1.0" encoding="UTF-8" standalone="no"?>
<!-- Created with Inkscape (http://www.inkscape.org/) -->

<svg
   width="20in"
   height="7in"
   viewBox="0 0 508 177.8"
   version="1.1"
   id="svg5"
   inkscape:version="1.2.1 (9c6d41e4, 2022-07-14)"
   sodipodi:docname="ToolHolder_7in_mount.svg"
   xmlns:inkscape="http://www.inkscape.org/namespaces/inkscape"
   xmlns:sodipodi="http://sodipodi.sourceforge.net/DTD/sodipodi-0.dtd"
   xmlns="http://www.w3.org/2000/svg"
   xmlns:svg="http://www.w3.org/2000/svg">
  <sodipodi:namedview
     id="namedview7"
     pagecolor="#ffffff"
     bordercolor="#000000"
     borderopacity="0.25"
     inkscape:showpageshadow="2"
     inkscape:pageopacity="0.0"
     inkscape:pagecheckerboard="0"
     inkscape:deskcolor="#d1d1d1"
     inkscape:document-units="in"
     showgrid="true"
     shape-rendering="crispEdges"
     inkscape:zoom="0.5"
     inkscape:cx="205"
     inkscape:cy="267"
     inkscape:window-width="1172"
     inkscape:window-height="683"
     inkscape:window-x="0"
     inkscape:window-y="0"
     inkscape:window-maximized="0"
     inkscape:current-layer="svg5"
     showguides="false">
    <inkscape:grid
       type="xygrid"
       id="grid118"
       units="in"
       spacingx="6.35"
       spacingy="6.35"
       empspacing="4" />
    <sodipodi:guide
       position="120.65,69.85"
       orientation="1,0"
       id="guide1041"
       inkscape:locked="false" />
  </sodipodi:namedview>
  <defs
     id="defs2">
    <rect
       x="194"
       y="82"
       width="316"
       height="90"
       id="rect4261" />
    <rect
       x="48"
       y="600"
       width="360"
       height="48"
       id="rect277" />
    <rect
       x="24"
       y="600"
       width="384"
       height="48"
       id="rect271" />
  </defs>
  <g
     id="g502-8-7"
     inkscape:label="Mount1"
     transform="translate(6.6145836)"
     style="stroke-width:0;stroke-dasharray:none;stroke:#000000;stroke-opacity:1">
    <g
       inkscape:label="Block"
       id="layer1-4-1"
       style="stroke-width:0;stroke-dasharray:none;stroke:#000000;stroke-opacity:1">
      <path
         id="rect429-6-0"
         style="display:inline;fill:#ff0000;stroke:#000000;stroke-width:0;stroke-dasharray:none;stroke-opacity:1"
         d="M 12.435416,0.52916667 C -0.2645836,6.8791667 -6.6145836,31.75 -6.3500003,52.3875 L 19.05,33.3375 V 50.8 c -3.517886,0 -6.35,2.832116 -6.35,6.35 v 50.8 L 12.964583,127 1.2707232,125.24248 c -3.4910651,-0.4336 -6.6507208,2.02798 -7.0843221,5.51905 l -0.7823812,6.30142 C -5.3843543,158.37633 25.135416,152.4 37.835416,152.4 L 183.35625,0.52916667 Z"
         sodipodi:nodetypes="ccccscccccccc" />
    </g>
  </g>
  <g
     aria-label="JDS BullNose"
     transform="scale(0.26458333)"
     id="text4259"
     style="font-size:40px;line-height:1.25;font-family:Silom;-inkscape-font-specification:Silom;white-space:pre;shape-inside:url(#rect4261);display:inline">
    <path
       d="m 212,86.926275 v 20.919995 q 0,1.32 -0.16,2.44 -0.12,1.12 -0.44,1.92 -0.52,1.28 -1.44,2.36 -0.88,1.04 -2.08,1.8 -1.2,0.72 -2.68,1.12 -1.44,0.44 -3.04,0.44 -4.84,0 -7.88,-4.44 l 5.12,-5.24 q 0.2,1.36 0.88,2.16 0.68,0.8 1.68,0.8 2.2,0 2.2,-3.48 V 86.926275 Z"
       style="font-weight:bold;font-family:Futura;-inkscape-font-specification:'Futura Bold'"
       id="path6557" />
    <path
       d="m 226.19995,110.44627 h 1.8 q 2.04,0 3.64,-0.64 1.6,-0.64 2.68,-1.76 1.12,-1.12 1.68,-2.64 0.6,-1.56 0.6,-3.4 0,-1.8 -0.6,-3.359995 -0.6,-1.56 -1.72,-2.68 -1.08,-1.12 -2.68,-1.76 -1.6,-0.64 -3.6,-0.64 h -1.8 z m -7.84,-23.519995 h 11.6 q 3.08,0 5.76,1.24 2.72,1.24 4.72,3.32 2.04,2.04 3.2,4.8 1.16,2.72 1.16,5.719995 0,2.96 -1.16,5.72 -1.12,2.72 -3.16,4.8 -2,2.08 -4.72,3.32 -2.68,1.24 -5.8,1.24 h -11.6 z"
       style="font-weight:bold;font-family:Futura;-inkscape-font-specification:'Futura Bold'"
       id="path6559" />
    <path
       d="m 266.35992,94.646275 q -1.28,-1.04 -2.56,-1.52 -1.28,-0.52 -2.48,-0.52 -1.52,0 -2.48,0.72 -0.96,0.72 -0.96,1.88 0,0.8 0.48,1.32 0.48,0.52 1.24,0.92 0.8,0.36 1.76,0.64 1,0.28 1.96,0.6 3.84,1.28 5.6,3.439995 1.8,2.12 1.8,5.56 0,2.32 -0.8,4.2 -0.76,1.88 -2.28,3.24 -1.48,1.32 -3.68,2.04 -2.16,0.76 -4.92,0.76 -5.72,0 -10.6,-3.4 l 3.36,-6.32 q 1.76,1.56 3.48,2.32 1.72,0.76 3.4,0.76 1.92,0 2.84,-0.88 0.96,-0.88 0.96,-2 0,-0.68 -0.24,-1.16 -0.24,-0.52 -0.8,-0.92 -0.56,-0.44 -1.48,-0.8 -0.88,-0.36 -2.16,-0.8 -1.52,-0.48 -3,-1.04 -1.44,-0.6 -2.6,-1.56 -1.12,-0.96 -1.84,-2.399995 -0.68,-1.48 -0.68,-3.72 0,-2.24 0.72,-4.04 0.76,-1.84 2.08,-3.12 1.36,-1.32 3.28,-2.04 1.96,-0.72 4.36,-0.72 2.24,0 4.68,0.64 2.44,0.6 4.68,1.8 z"
       style="font-weight:bold;font-family:Futura;-inkscape-font-specification:'Futura Bold'"
       id="path6561" />
    <path
       d="m 297.07985,111.00627 h 1.72 q 2.96,0 4.24,-0.76 1.28,-0.76 1.28,-2.44 0,-1.68 -1.28,-2.44 -1.28,-0.76 -4.24,-0.76 h -1.72 z m 0,-12.239995 h 1.44 q 3.68,0 3.68,-2.92 0,-2.92 -3.68,-2.92 h -1.44 z m -7.84,-11.84 h 11.68 q 4.16,0 6.32,2 2.16,2 2.16,5.76 0,2.28 -0.84,3.8 -0.8,1.48 -2.48,2.519995 1.68,0.32 2.84,1 1.2,0.64 1.92,1.6 0.76,0.96 1.08,2.16 0.32,1.2 0.32,2.56 0,2.12 -0.76,3.76 -0.72,1.64 -2.08,2.76 -1.32,1.12 -3.24,1.68 -1.92,0.56 -4.32,0.56 h -12.6 z"
       style="font-weight:bold;font-family:Futura;-inkscape-font-specification:'Futura Bold'"
       id="path6563" />
    <path
       d="m 323.47983,96.566275 v 11.559995 q 0,3.8 3.68,3.8 3.68,0 3.68,-3.8 V 96.566275 h 7.24 v 12.959995 q 0,4.16 -2.76,6.24 -2.72,2.08 -8.16,2.08 -5.44,0 -8.2,-2.08 -2.72,-2.08 -2.72,-6.24 V 96.566275 Z"
       style="font-weight:bold;font-family:Futura;-inkscape-font-specification:'Futura Bold'"
       id="path6565" />
    <path
       d="m 350.23978,83.886275 v 33.199995 h -7.24 V 83.886275 Z"
       style="font-weight:bold;font-family:Futura;-inkscape-font-specification:'Futura Bold'"
       id="path6567" />
    <path
       d="m 362.43971,83.886275 v 33.199995 h -7.24 V 83.886275 Z"
       style="font-weight:bold;font-family:Futura;-inkscape-font-specification:'Futura Bold'"
       id="path6569" />
    <path
       d="M 368.07965,117.08627 V 86.926275 h 7.84 l 14.48,18.439995 V 86.926275 h 7.8 v 30.159995 h -7.8 l -14.48,-18.439995 v 18.439995 z"
       style="font-weight:bold;font-family:Futura;-inkscape-font-specification:'Futura Bold'"
       id="path6571" />
    <path
       d="m 410.9996,106.72627 q 0,1.04 0.36,1.92 0.4,0.84 1,1.48 0.64,0.64 1.48,1 0.88,0.36 1.84,0.36 0.96,0 1.8,-0.36 0.88,-0.36 1.48,-1 0.64,-0.64 1,-1.48 0.4,-0.88 0.4,-1.88 0,-0.96 -0.4,-1.8 -0.36,-0.88 -1,-1.52 -0.6,-0.64 -1.48,-1 -0.84,-0.36 -1.8,-0.36 -0.96,0 -1.84,0.36 -0.84,0.36 -1.48,1 -0.6,0.64 -1,1.48 -0.36,0.84 -0.36,1.8 z m -7.64,-0.08 q 0,-2.28 0.92,-4.24 0.92,-2 2.56,-3.439995 1.64,-1.48 3.88,-2.32 2.28,-0.84 4.96,-0.84 2.64,0 4.88,0.84 2.28,0.8 3.92,2.28 1.68,1.439995 2.6,3.479995 0.92,2 0.92,4.44 0,2.44 -0.96,4.48 -0.92,2 -2.56,3.48 -1.64,1.44 -3.96,2.24 -2.28,0.8 -4.96,0.8 -2.64,0 -4.88,-0.8 -2.24,-0.8 -3.88,-2.28 -1.6,-1.48 -2.52,-3.52 -0.92,-2.08 -0.92,-4.6 z"
       style="font-weight:bold;font-family:Futura;-inkscape-font-specification:'Futura Bold'"
       id="path6573" />
    <path
       d="m 445.75955,101.84627 q -2,-1.04 -3.92,-1.04 -1,0 -1.64,0.4 -0.6,0.4 -0.6,1.08 0,0.36 0.08,0.6 0.12,0.2 0.44,0.4 0.36,0.2 1,0.36 0.68,0.16 1.76,0.4 3,0.6 4.48,2.16 1.48,1.52 1.48,3.92 0,1.8 -0.72,3.24 -0.72,1.44 -2,2.44 -1.28,0.96 -3.08,1.48 -1.8,0.56 -3.96,0.56 -4.16,0 -8.2,-2.36 l 2.64,-5.12 q 3.04,2.08 5.76,2.08 1,0 1.64,-0.44 0.64,-0.44 0.64,-1.12 0,-0.4 -0.12,-0.64 -0.08,-0.28 -0.4,-0.48 -0.32,-0.24 -0.96,-0.4 -0.6,-0.2 -1.6,-0.4 -3.36,-0.68 -4.72,-2 -1.32,-1.36 -1.32,-3.72 0,-1.72 0.64,-3.08 0.64,-1.399995 1.84,-2.359995 1.2,-0.96 2.88,-1.48 1.72,-0.52 3.8,-0.52 3.4,0 6.6,1.32 z"
       style="font-weight:bold;font-family:Futura;-inkscape-font-specification:'Futura Bold'"
       id="path6575" />
    <path
       d="m 467.51949,103.84627 q -0.36,-1.52 -1.48,-2.44 -1.12,-0.92 -2.72,-0.92 -1.68,0 -2.76,0.88 -1.04,0.88 -1.32,2.48 z m -8.48,4.2 q 0,4.68 4.4,4.68 2.36,0 3.56,-1.92 h 7 q -2.12,7.04 -10.6,7.04 -2.6,0 -4.76,-0.76 -2.16,-0.8 -3.72,-2.24 -1.52,-1.44 -2.36,-3.44 -0.84,-2 -0.84,-4.48 0,-2.56 0.8,-4.6 0.8,-2.08 2.28,-3.519995 1.48,-1.44 3.56,-2.2 2.12,-0.8 4.76,-0.8 2.6,0 4.68,0.8 2.08,0.76 3.52,2.24 1.44,1.479995 2.2,3.639995 0.76,2.12 0.76,4.8 v 0.76 z"
       style="font-weight:bold;font-family:Futura;-inkscape-font-specification:'Futura Bold'"
       id="path6577" />
  </g>
</svg>
