<?xml version="1.0" encoding="UTF-8" standalone="no"?>
<!-- Created with Inkscape (http://www.inkscape.org/) -->

<svg
   width="20in"
   height="7in"
   viewBox="0 0 508 177.8"
   version="1.1"
   id="svg5"
   inkscape:version="1.2.1 (9c6d41e, 2022-07-14)"
   sodipodi:docname="ToolHolder_34_5in_mount.svg"
   xmlns:inkscape="http://www.inkscape.org/namespaces/inkscape"
   xmlns:sodipodi="http://sodipodi.sourceforge.net/DTD/sodipodi-0.dtd"
   xmlns="http://www.w3.org/2000/svg"
   xmlns:svg="http://www.w3.org/2000/svg">
  <sodipodi:namedview
     id="namedview7"
     pagecolor="#ffffff"
     bordercolor="#000000"
     borderopacity="0.25"
     inkscape:showpageshadow="2"
     inkscape:pageopacity="0.0"
     inkscape:pagecheckerboard="0"
     inkscape:deskcolor="#d1d1d1"
     inkscape:document-units="in"
     showgrid="true"
     shape-rendering="crispEdges"
     inkscape:zoom="0.84096521"
     inkscape:cx="310.95222"
     inkscape:cy="256.25317"
     inkscape:window-width="1544"
     inkscape:window-height="935"
     inkscape:window-x="151"
     inkscape:window-y="106"
     inkscape:window-maximized="0"
     inkscape:current-layer="svg5"
     showguides="true">
    <inkscape:grid
       type="xygrid"
       id="grid118"
       units="in"
       spacingx="6.35"
       spacingy="6.35"
       empspacing="4" />
    <sodipodi:guide
       position="120.65,69.85"
       orientation="1,0"
       id="guide1041"
       inkscape:locked="false" />
  </sodipodi:namedview>
  <defs
     id="defs2" />
  <g
     id="g502-8-7"
     inkscape:label="Mount1"
     transform="translate(6.6145836)">
    <g
       inkscape:label="Block"
       id="layer1-4-1">
      <path
         id="rect429-6-0"
         style="display:inline;fill:#ff0000;stroke-width:0.264583"
         d="M 11.377083,0 C -2.2205198,7.7438294 -0.12954294,37.936295 -2.6666667e-7,52.3875 L 19.05,33.3375 V 50.8 c -3.517886,0 -6.35,2.832116 -6.35,6.35 v 50.8 c 0,3.5179 2.832114,6.35 6.35,6.35 V 127 H 15.419214 L 1.2707232,125.24248 c -3.4910651,-0.4336 -6.6507208,2.02798 -7.0843221,5.51905 l -0.7823812,6.30142 C -5.3843543,158.37633 25.135416,152.4 37.835416,152.4 L 133.08542,0 H 32.279166 31.485416 Z"
         sodipodi:nodetypes="ccccssccccccccccc" />
      <path
         id="rect429-6-0-6"
         style="display:inline;fill:#ff0000;stroke-width:0.264583"
         d="m 172.50834,152.4 c 13.5976,-7.74383 11.50662,-37.9363 11.37708,-52.3875 l -19.05,19.05 V 101.6 c 3.51789,0 6.35,-2.832116 6.35,-6.35 v -50.8 c 0,-3.5179 -2.83211,-6.35 -6.35,-6.35 V 25.4 h 3.63079 l 14.14849,1.75752 c 3.49106,0.4336 6.65072,-2.02798 7.08432,-5.51905 l 0.78238,-6.30142 C 189.26977,-5.976329 158.75,9.9999999e-7 146.05,9.9999999e-7 L 50.799996,152.4 H 151.60625 152.4 Z"
         sodipodi:nodetypes="ccccssccccccccccc" />
    </g>
    <g
       id="layer2-3-2"
       inkscape:label="cutout"
       style="display:inline" />
  </g>
</svg>
