<?xml version="1.0" encoding="UTF-8" standalone="no"?>
<!-- Created with Inkscape (http://www.inkscape.org/) -->

<svg
   width="20in"
   height="7in"
   viewBox="0 0 508 177.8"
   version="1.1"
   id="svg5"
   inkscape:version="1.2.1 (9c6d41e4, 2022-07-14)"
   sodipodi:docname="ToolHolder_single_1-5x2-5_2units.svg"
   xmlns:inkscape="http://www.inkscape.org/namespaces/inkscape"
   xmlns:sodipodi="http://sodipodi.sourceforge.net/DTD/sodipodi-0.dtd"
   xmlns="http://www.w3.org/2000/svg"
   xmlns:svg="http://www.w3.org/2000/svg">
  <sodipodi:namedview
     id="namedview7"
     pagecolor="#ffffff"
     bordercolor="#000000"
     borderopacity="0.25"
     inkscape:showpageshadow="2"
     inkscape:pageopacity="0.0"
     inkscape:pagecheckerboard="0"
     inkscape:deskcolor="#d1d1d1"
     inkscape:document-units="in"
     showgrid="true"
     shape-rendering="crispEdges"
     inkscape:zoom="0.19897838"
     inkscape:cx="1625.8048"
     inkscape:cy="588.0036"
     inkscape:window-width="1237"
     inkscape:window-height="836"
     inkscape:window-x="105"
     inkscape:window-y="0"
     inkscape:window-maximized="0"
     inkscape:current-layer="layer1"
     showguides="true">
    <inkscape:grid
       type="xygrid"
       id="grid118"
       units="in"
       spacingx="6.35"
       spacingy="6.35"
       empspacing="4" />
    <sodipodi:guide
       position="-25.4,107.95"
       orientation="1,0"
       id="guide1041"
       inkscape:locked="false" />
  </sodipodi:namedview>
  <defs
     id="defs2">
    <inkscape:path-effect
       effect="fillet_chamfer"
       id="path-effect4961"
       is_visible="true"
       lpeversion="1"
       nodesatellites_param="F,0,0,1,0,0,0,1 @ F,0,1,1,0,7.8125,0,1 @ F,0,1,1,0,7.8125,0,1 @ F,0,1,1,0,7.8125,0,1 @ F,0,1,1,0,7.8125,0,1 @ F,0,1,1,0,7.8125,0,1 @ F,0,1,1,0,7.8125,0,1 @ F,0,1,1,0,7.8125,0,1 @ F,0,1,1,0,7.8125,0,1 @ F,0,1,1,0,7.8125,0,1 @ F,0,1,1,0,7.8125,0,1 @ F,0,1,1,0,7.8125,0,1 @ F,0,1,1,0,7.8125,0,1 @ F,0,1,1,0,7.8125,0,1 @ F,0,1,1,0,7.8125,0,1 @ F,0,1,1,0,7.8125,0,1 @ F,0,1,1,0,7.8125,0,1 @ F,0,1,1,0,7.8125,0,1 @ F,0,1,1,0,7.8125,0,1 @ F,0,1,1,0,7.8125,0,1 @ F,0,1,1,0,7.8125,0,1 @ F,0,1,1,0,7.8125,0,1 @ F,0,1,1,0,7.8125,0,1 @ F,0,1,1,0,7.8125,0,1 @ F,0,1,1,0,7.8125,0,1 @ F,0,1,1,0,7.8125,0,1 @ F,0,1,1,0,7.8125,0,1 @ F,0,1,1,0,7.8125,0,1 @ F,0,1,1,0,7.8125,0,1 @ F,0,1,1,0,7.8125,0,1 @ F,0,1,1,0,7.8125,0,1 @ F,0,1,1,0,7.8125,0,1 @ F,0,1,1,0,7.8125,0,1 @ F,0,1,1,0,7.8125,0,1 @ F,0,1,1,0,7.8125,0,1 @ F,0,1,1,0,7.8125,0,1 @ F,0,1,1,0,7.8125,0,1 @ F,0,1,1,0,7.8125,0,1 @ F,0,1,1,0,7.8125,0,1 @ F,0,1,1,0,7.8125,0,1 @ F,0,1,1,0,7.8125,0,1 @ F,0,1,1,0,7.8125,0,1 @ F,0,1,1,0,7.8125,0,1 @ F,0,1,1,0,7.8125,0,1 @ F,0,1,1,0,7.8125,0,1 @ F,0,1,1,0,7.8125,0,1 @ F,0,1,1,0,7.8125,0,1 @ F,0,1,1,0,7.8125,0,1 @ F,0,1,1,0,7.8125,0,1 @ F,0,1,1,0,7.8125,0,1 @ F,0,1,1,0,7.8125,0,1 @ F,0,0,1,0,0,0,1 @ F,0,0,1,0,0,0,1 @ F,0,0,1,0,0,0,1 @ F,0,0,1,0,0,0,1 @ F,0,0,1,0,0,0,1 @ F,0,0,1,0,0,0,1 @ F,0,0,1,0,0,0,1 @ F,0,0,1,0,0,0,1 @ F,0,0,1,0,0,0,1 @ F,0,0,1,0,0,0,1 @ F,0,0,1,0,0,0,1"
       unit="px"
       method="auto"
       mode="F"
       radius="50"
       chamfer_steps="1"
       flexible="true"
       use_knot_distance="true"
       apply_no_radius="true"
       apply_with_radius="true"
       only_selected="true"
       hide_knots="false" />
    <inkscape:path-effect
       effect="fillet_chamfer"
       id="path-effect4890"
       is_visible="true"
       lpeversion="1"
       nodesatellites_param="F,0,0,1,0,0,0,1 @ F,0,0,1,0,0,0,1 @ F,0,0,1,0,0,0,1 @ F,0,0,1,0,0,0,1 @ F,0,0,1,0,0,0,1 @ F,0,0,1,0,0,0,1 @ F,0,0,1,0,0,0,1 @ F,0,0,1,0,0,0,1 @ F,0,0,1,0,0,0,1 @ F,0,0,1,0,0,0,1 @ F,0,0,1,0,0,0,1 @ F,0,0,1,0,0,0,1 @ F,0,0,1,0,0,0,1 @ F,0,0,1,0,0,0,1 @ F,0,0,1,0,0,0,1 @ F,0,0,1,0,0,0,1 @ F,0,0,1,0,0,0,1 @ F,0,0,1,0,0,0,1 @ F,0,0,1,0,0,0,1 @ F,0,0,1,0,0,0,1 @ F,0,0,1,0,0,0,1 @ F,0,0,1,0,0,0,1 @ F,0,0,1,0,0,0,1 @ F,0,0,1,0,0,0,1 @ F,0,0,1,0,0,0,1 @ F,0,0,1,0,0,0,1 @ F,0,0,1,0,0,0,1 @ F,0,0,1,0,0,0,1 @ F,0,0,1,0,0,0,1 @ F,0,0,1,0,0,0,1 @ F,0,0,1,0,0,0,1"
       unit="px"
       method="auto"
       mode="F"
       radius="750"
       chamfer_steps="1"
       flexible="false"
       use_knot_distance="true"
       apply_no_radius="true"
       apply_with_radius="true"
       only_selected="true"
       hide_knots="false" />
    <rect
       x="24"
       y="24"
       width="336"
       height="120"
       id="rect677" />
    <inkscape:path-effect
       effect="fillet_chamfer"
       id="path-effect4890-0"
       is_visible="true"
       lpeversion="1"
       nodesatellites_param="F,0,0,1,0,0,0,1 @ F,0,0,1,0,0,0,1 @ F,0,0,1,0,0,0,1 @ F,0,0,1,0,0,0,1 @ F,0,0,1,0,0,0,1 @ F,0,0,1,0,0,0,1 @ F,0,0,1,0,0,0,1 @ F,0,0,1,0,0,0,1 @ F,0,0,1,0,0,0,1 @ F,0,0,1,0,0,0,1 @ F,0,0,1,0,0,0,1 @ F,0,0,1,0,0,0,1 @ F,0,0,1,0,0,0,1 @ F,0,0,1,0,0,0,1 @ F,0,0,1,0,0,0,1 @ F,0,0,1,0,0,0,1 @ F,0,0,1,0,0,0,1 @ F,0,0,1,0,0,0,1 @ F,0,0,1,0,0,0,1 @ F,0,0,1,0,0,0,1 @ F,0,0,1,0,0,0,1 @ F,0,0,1,0,0,0,1 @ F,0,0,1,0,0,0,1 @ F,0,0,1,0,0,0,1 @ F,0,0,1,0,0,0,1 @ F,0,0,1,0,0,0,1 @ F,0,0,1,0,0,0,1 @ F,0,0,1,0,0,0,1 @ F,0,0,1,0,0,0,1 @ F,0,0,1,0,0,0,1 @ F,0,0,1,0,0,0,1"
       unit="px"
       method="auto"
       mode="F"
       radius="750"
       chamfer_steps="1"
       flexible="false"
       use_knot_distance="true"
       apply_no_radius="true"
       apply_with_radius="true"
       only_selected="true"
       hide_knots="false" />
  </defs>
  <g
     inkscape:groupmode="layer"
     id="layer1"
     inkscape:label="main"
     style="display:inline">
    <path
       id="rect733"
       style="display:inline;opacity:0.6812;fill:#ffff00;stroke:#000000;stroke-width:0.3302;stroke-dasharray:none"
       inkscape:label="main"
       d="M 0.34003092,0.0289388 V 169.95856 a 7.8125,7.8125 45 0 0 7.81249998,7.8125 H 17.5875 A 7.8125,7.8125 135 0 0 25.4,169.95856 V 83.483333 a 7.8125,7.8125 135 0 1 7.8125,-7.8125 h 3.425 19.05 a 7.8125,7.8125 45 0 1 7.8125,7.8125 l 0,86.475227 a 7.829116,7.829116 45.060865 0 0 7.812482,7.8291 l 9.429321,0.02 a 5.5332473,5.5332473 1.9211828 0 1 7.812482,0.26206 h 17.247465 a 7.8125,7.8125 135 0 0 7.8125,-7.8125 V 83.782023 a 7.8125,7.8125 135 0 1 7.8125,-7.8125 h 22.475 a 7.8125,7.8125 45 0 1 7.8125,7.8125 v 86.475227 a 7.8291875,7.8291875 45.061127 0 0 7.81248,7.82917 l 10.04841,0.0214 a 5.518379,5.518379 0.06915634 0 0 7.81248,0.009 h 16.61288 a 7.8125,7.8125 135 0 0 7.8125,-7.8125 l 0,-86.475225 a 7.8125,7.8125 135 0 1 7.8125,-7.8125 h 22.475 a 7.8125,7.8125 45 0 1 7.8125,7.8125 v 86.475225 a 7.829116,7.829116 45.060865 0 0 7.81248,7.8291 l 9.42933,0.02 a 5.5332473,5.5332473 1.9211828 0 1 7.81248,0.26206 h 17.24747 a 7.8125,7.8125 135 0 0 7.8125,-7.8125 l 0,-86.475225 a 7.8125,7.8125 135 0 1 7.8125,-7.8125 h 22.475 a 7.8125,7.8125 45 0 1 7.8125,7.8125 v 86.475225 a 7.8291875,7.8291875 45.061127 0 0 7.81248,7.82917 l 10.04841,0.0214 a 5.5351516,5.5351516 175.53794 0 0 7.81248,-0.60965 h 17.12913 a 7.8125,7.8125 135 0 0 7.8125,-7.8125 V 83.556714 a 7.8125,7.8125 135 0 1 7.8125,-7.8125 h 3.425 19.05 a 7.8125,7.8125 45 0 1 7.8125,7.8125 v 86.475226 a 7.829116,7.829116 45.060865 0 0 7.81248,7.8291 l 9.42932,0.02 a 5.5332473,5.5332473 1.9211828 0 1 7.81248,0.26206 h 17.24747 a 7.8125,7.8125 135 0 0 7.8125,-7.8125 V 83.855404 a 7.8125,7.8125 135 0 1 7.8125,-7.8125 h 22.475 a 7.8125,7.8125 45 0 1 7.8125,7.8125 v 86.475226 a 7.8291875,7.8291875 45.061127 0 0 7.81248,7.82917 l 10.04841,0.0214 a 5.518379,5.518379 0.06915634 0 0 7.81248,0.009 h 16.61288 a 7.8125,7.8125 135 0 0 7.8125,-7.8125 V 83.902946 a 7.8125,7.8125 135 0 1 7.8125,-7.8125 h 22.475 a 7.8125,7.8125 45 0 1 7.8125,7.8125 v 86.475224 a 7.829116,7.829116 45.060865 0 0 7.81248,7.8291 l 9.42933,0.02 a 5.5332473,5.5332473 1.9211828 0 1 7.81248,0.26206 h 17.24746 a 7.8125,7.8125 135 0 0 7.8125,-7.8125 V 84.201636 a 7.8125,7.8125 135 0 1 7.8125,-7.8125 h 22.475 a 7.8125,7.8125 45 0 1 7.8125,7.8125 l 0,86.475224 a 7.8291875,7.8291875 45.061127 0 0 7.81248,7.82917 l 10.04841,0.0214 a 7.7938546,7.7938546 135.0538 0 0 7.81048,-7.79583 L 707.09741,0.74724121 530.6844,0.44855143 V 0.40100911 H 442.47015 V 0.10231934 H 353.68229 V 0.67386068 L 177.34215,0.3751709 V 0.32762858 H 89.127893 V 0.0289388 Z"
       inkscape:path-effect="#path-effect4961"
       inkscape:original-d="M 0.34003092 0.028938802 L 0.34003092 177.77106 L 25.4 177.77106 L 25.4 75.670833 L 44.45 75.670833 L 63.5 75.670833 L 63.5 177.77106 L 88.554285 177.82429 L 88.554285 178.06975 L 113.61425 178.06975 L 113.61425 75.969523 L 151.71425 75.969523 L 151.71425 178.06975 L 177.38762 178.12453 L 177.38762 178.11729 L 201.813 178.11729 L 201.813 76.017065 L 239.913 76.017065 L 239.913 178.11729 L 264.96729 178.17052 L 264.96729 178.41598 L 290.02726 178.41598 L 290.02726 76.315755 L 328.12726 76.315755 L 328.12726 178.41598 L 353.80063 178.47076 L 353.80063 177.84444 L 378.74226 177.84444 L 378.74226 75.744214 L 397.79226 75.744214 L 416.84226 75.744214 L 416.84226 177.84444 L 441.89654 177.89767 L 441.89654 178.14313 L 466.95651 178.14313 L 466.95651 76.042904 L 505.05651 76.042904 L 505.05651 178.14313 L 530.72988 178.19791 L 530.72988 178.19067 L 555.15526 178.19067 L 555.15526 76.090446 L 593.25526 76.090446 L 593.25526 178.19067 L 618.30955 178.2439 L 618.30955 178.48936 L 643.36951 178.48936 L 643.36951 76.389136 L 681.46951 76.389136 L 681.46951 178.48936 L 707.14288 178.54414 L 707.09741 0.74724121 L 530.6844 0.44855143 L 530.6844 0.40100911 L 442.47015 0.40100911 L 442.47015 0.10231934 L 353.68229 0.10231934 L 353.68229 0.67386068 L 177.34215 0.3751709 L 177.34215 0.32762858 L 89.127893 0.32762858 L 89.127893 0.028938802 L 0.34003092 0.028938802 z " />
  </g>
  <g
     inkscape:groupmode="layer"
     id="layer1-4"
     inkscape:label="main"
     style="display:inline"
     transform="translate(103.67218,-0.08087276)" />
</svg>
